<?xml version="1.0" standalone="no"?>
<!DOCTYPE svg PUBLIC "-//W3C//DTD SVG 20010904//EN"
 "http://www.w3.org/TR/2001/REC-SVG-20010904/DTD/svg10.dtd">
<svg version="1.0" xmlns="http://www.w3.org/2000/svg"
 width="1809.000000pt" height="933.000000pt" viewBox="0 0 1809.000000 933.000000"
 preserveAspectRatio="xMidYMid meet">
<metadata>
Created by potrace 1.10, written by Peter Selinger 2001-2011
</metadata>
<g transform="translate(0.000000,933.000000) scale(0.100000,-0.100000)"
fill="#f9f9f9" stroke="none">
<path d="M2180 9299 c0 -17 4 -38 9 -47 8 -15 21 -79 50 -240 5 -24 13 -48 19
-54 7 -7 12 -35 12 -62 0 -28 7 -69 15 -91 8 -22 14 -56 15 -75 0 -20 6 -45
14 -56 8 -11 16 -46 19 -79 5 -62 19 -133 42 -220 7 -27 16 -62 19 -77 4 -16
11 -28 17 -28 19 0 1 136 -36 275 -8 28 -19 84 -25 125 -6 41 -19 111 -29 155
-11 44 -27 116 -36 160 -9 44 -23 108 -31 142 -8 34 -14 77 -14 97 0 19 -4 37
-9 41 -5 3 -12 19 -16 35 -9 40 -35 40 -35 -1z"/>
<path d="M2850 9316 c0 -8 17 -28 38 -46 91 -78 146 -127 176 -155 17 -17 51
-47 76 -67 25 -19 57 -46 71 -59 39 -37 171 -153 203 -180 16 -13 50 -42 75
-65 57 -51 136 -120 226 -199 37 -33 78 -69 91 -80 12 -11 43 -38 69 -60 26
-22 55 -47 64 -55 9 -8 53 -46 97 -85 43 -38 84 -74 90 -80 6 -5 39 -35 74
-65 35 -30 143 -125 240 -210 97 -85 205 -180 240 -210 35 -30 71 -62 79 -70
9 -8 46 -40 81 -70 36 -30 73 -62 83 -71 38 -35 107 -80 107 -70 0 11 -103
116 -181 183 -30 26 -68 59 -85 75 -17 15 -59 53 -94 83 -35 30 -71 62 -80 70
-9 8 -62 56 -119 105 -57 50 -117 103 -135 118 -17 16 -45 40 -63 53 -17 14
-49 42 -70 61 -21 20 -92 83 -158 140 -66 58 -149 130 -185 162 -36 32 -101
89 -145 127 -44 38 -98 85 -120 105 -22 20 -96 85 -165 146 -69 60 -138 122
-155 137 -16 16 -63 56 -104 90 -41 33 -103 88 -138 121 -36 33 -80 71 -99 84
-19 13 -34 30 -34 38 0 7 -11 13 -25 13 -15 0 -25 -6 -25 -14z"/>
<path d="M3880 9317 c0 -6 24 -48 53 -92 28 -45 72 -114 97 -154 25 -40 76
-121 115 -179 38 -59 73 -114 77 -122 5 -8 16 -27 26 -41 9 -15 30 -48 46 -75
16 -27 46 -74 66 -104 53 -78 142 -217 176 -273 16 -27 36 -59 44 -72 51 -80
154 -239 208 -321 34 -53 62 -97 62 -99 0 -6 145 -220 173 -256 22 -28 27 -30
26 -14 0 11 -9 34 -20 50 -10 17 -22 37 -26 45 -4 8 -19 33 -35 54 -15 21 -28
45 -28 53 0 7 -4 13 -9 13 -5 0 -19 19 -31 41 -11 23 -41 72 -66 110 -24 37
-44 72 -44 78 0 5 -3 11 -7 13 -11 4 -53 65 -53 75 0 5 -13 24 -28 43 -16 19
-32 42 -35 50 -4 8 -20 34 -35 57 -15 24 -47 75 -71 115 -24 40 -48 75 -52 78
-4 3 -12 14 -16 25 -7 18 -114 185 -164 257 -11 15 -19 29 -19 32 0 3 -20 34
-45 70 -25 37 -45 69 -45 72 0 3 -13 23 -28 43 -16 20 -32 43 -35 51 -4 8 -16
29 -27 45 -11 17 -23 37 -27 45 -4 8 -11 20 -15 25 -14 16 -78 116 -78 122 0
2 -20 31 -45 63 -25 32 -45 66 -45 74 0 9 -8 16 -20 16 -11 0 -20 -6 -20 -13z"/>
<path d="M4640 9298 c1 -18 7 -44 15 -58 8 -14 14 -38 15 -53 0 -16 5 -38 12
-50 6 -12 15 -40 19 -62 11 -58 30 -125 45 -162 8 -17 14 -46 14 -65 0 -19 7
-43 15 -54 8 -10 15 -38 15 -61 0 -23 4 -44 9 -48 6 -3 13 -27 17 -53 3 -26
11 -56 17 -67 6 -11 14 -36 18 -55 15 -68 38 -156 53 -205 8 -27 20 -70 27
-95 6 -25 18 -62 25 -83 8 -20 14 -47 14 -58 0 -12 6 -35 14 -52 8 -18 17 -48
19 -67 6 -40 52 -220 68 -265 6 -16 15 -48 20 -70 6 -21 14 -44 18 -50 5 -5
12 -25 16 -43 4 -18 11 -29 17 -26 11 7 6 52 -10 99 -10 29 -27 95 -42 165
-16 72 -33 136 -46 167 -8 17 -14 43 -14 58 0 14 -5 36 -12 48 -6 12 -15 40
-20 62 -15 77 -33 150 -41 162 -4 6 -12 31 -17 55 -18 86 -57 230 -73 268 -5
14 -15 52 -22 85 -27 123 -71 295 -97 370 -5 17 -14 50 -19 75 -13 65 -33 132
-47 157 -6 12 -12 31 -12 42 0 12 -7 21 -15 21 -10 0 -15 -10 -15 -32z"/>
<path d="M5120 9316 c0 -17 383 -406 399 -406 13 0 14 10 3 27 -12 18 -243
263 -299 316 -29 28 -53 56 -53 63 0 8 -11 14 -25 14 -15 0 -25 -6 -25 -14z"/>
<path d="M5736 9281 c-9 -28 -16 -57 -16 -66 0 -10 -6 -31 -14 -48 -17 -41
-37 -112 -43 -158 -7 -52 14 -59 27 -10 6 22 15 43 20 46 6 3 10 21 10 39 0
18 7 41 15 52 8 10 15 30 15 44 0 14 7 36 15 50 8 14 14 42 15 63 0 54 -24 48
-44 -12z"/>
<path d="M6280 9317 c0 -14 -92 -87 -110 -87 -5 0 -10 -4 -10 -8 0 -5 -8 -13
-19 -18 -10 -5 -32 -19 -47 -31 -59 -46 -165 -123 -170 -123 -16 0 -174 -130
-174 -142 0 -18 34 -5 89 35 32 23 116 83 186 132 69 50 135 97 145 105 10 8
28 22 40 30 66 44 140 103 140 111 0 5 -16 9 -35 9 -22 0 -35 -5 -35 -13z"/>
<path d="M6490 9320 c0 -6 -30 -56 -67 -113 -37 -56 -72 -110 -78 -119 -5 -9
-23 -38 -39 -65 -16 -26 -53 -83 -83 -126 -29 -43 -53 -82 -53 -86 0 -4 -12
-21 -26 -37 -14 -16 -30 -41 -36 -56 -5 -16 -14 -28 -19 -28 -5 0 -9 -5 -9
-11 0 -6 -26 -50 -57 -97 -64 -95 -79 -120 -89 -142 -10 -19 -47 -73 -55 -80
-4 -3 -24 -34 -45 -69 -22 -35 -47 -75 -56 -90 -10 -14 -22 -35 -28 -46 -15
-29 -32 -56 -62 -96 -16 -20 -28 -40 -28 -43 0 -7 -40 -67 -51 -76 -3 -3 -9
-12 -12 -20 -4 -8 -16 -28 -26 -45 -11 -16 -29 -48 -41 -70 -12 -22 -35 -59
-51 -83 -16 -24 -29 -46 -29 -49 0 -3 -13 -22 -28 -42 -16 -20 -32 -43 -35
-51 -4 -8 -16 -28 -26 -45 -11 -16 -20 -39 -20 -50 0 -20 0 -20 11 0 6 11 17
24 25 28 7 4 13 14 13 21 0 8 7 16 15 20 8 3 15 10 15 16 0 7 19 37 43 68 24
31 47 64 50 72 4 8 16 29 27 45 11 17 24 39 30 50 6 11 19 34 30 50 11 17 23
37 27 45 4 8 25 40 48 70 44 60 46 63 107 165 23 39 45 72 50 73 4 2 8 8 8 13
0 6 27 50 60 100 33 49 60 92 60 95 0 4 14 23 30 44 17 21 30 41 30 44 0 3 14
25 30 48 17 22 30 47 30 55 0 7 7 16 15 19 8 4 15 11 15 16 0 6 14 30 30 55
17 24 30 47 30 51 1 4 14 23 30 42 17 19 30 38 30 43 0 5 14 26 30 47 17 21
30 43 30 48 0 6 6 17 13 24 7 7 37 53 67 102 30 48 62 98 70 111 8 12 29 46
45 74 17 28 33 51 38 51 4 0 7 9 7 20 0 13 -7 20 -20 20 -11 0 -20 -5 -20 -10z"/>
<path d="M6736 9283 c4 -27 12 -64 19 -83 7 -19 20 -64 29 -100 10 -36 23 -87
31 -115 14 -53 31 -118 45 -175 17 -68 42 -130 51 -124 20 12 9 76 -38 207 -7
20 -13 50 -13 65 0 15 -4 32 -9 38 -5 5 -14 32 -20 59 -15 76 -32 136 -47 173
-8 18 -14 48 -14 67 0 29 -4 35 -21 35 -19 0 -20 -4 -13 -47z"/>
<path d="M8010 9317 c0 -8 -26 -31 -57 -53 -32 -21 -101 -70 -153 -109 -52
-39 -108 -79 -125 -90 -16 -10 -84 -58 -150 -107 -66 -48 -148 -108 -182 -133
-34 -25 -66 -45 -70 -45 -4 0 -26 -16 -48 -35 -22 -20 -59 -47 -82 -61 -22
-15 -46 -37 -52 -50 -10 -22 -9 -23 17 -11 41 17 76 40 85 54 4 7 12 13 17 13
6 0 45 26 88 58 44 31 89 64 101 72 13 8 78 56 146 105 182 132 275 199 293
210 9 6 30 22 47 37 16 16 36 28 43 28 6 0 12 5 12 10 0 6 8 14 18 17 31 12
122 85 116 94 -9 15 -64 11 -64 -4z"/>
<path d="M11710 9315 c0 -23 42 -45 96 -51 38 -4 56 -1 82 15 17 12 32 28 32
36 0 12 -18 15 -105 15 -86 0 -105 -3 -105 -15z"/>
<path d="M12380 9305 c0 -14 8 -33 18 -43 28 -30 109 -154 126 -194 8 -21 17
-38 19 -38 8 0 122 62 132 72 6 6 -15 7 -62 3 l-71 -7 -25 48 c-14 27 -41 63
-61 81 -29 25 -36 39 -36 67 0 29 -4 36 -20 36 -15 0 -20 -7 -20 -25z"/>
<path d="M8560 9227 c-48 -65 -50 -79 -11 -71 27 6 29 4 24 -17 -13 -53 -46
-65 -64 -25 -10 21 -15 23 -36 15 -31 -12 -34 -11 -57 6 -15 12 -17 17 -7 29
10 11 9 24 -2 58 -15 44 -34 55 -47 28 -32 -64 -33 -69 -20 -102 7 -18 22 -42
32 -54 19 -21 25 -74 8 -74 -5 0 -10 -7 -10 -15 0 -8 5 -15 10 -15 6 0 10 3
10 8 0 16 69 54 89 47 35 -11 99 13 115 43 41 74 47 93 40 142 -4 32 -11 50
-20 50 -7 0 -31 -24 -54 -53z"/>
<path d="M13420 9220 c0 -6 6 -21 14 -33 11 -18 14 -78 12 -302 l-1 -280 -33
-57 c-34 -59 -57 -74 -98 -64 -33 9 -30 -6 6 -32 40 -30 59 -28 71 8 6 17 15
30 20 30 5 0 9 7 9 14 0 8 13 28 30 43 l29 28 2 317 c0 175 -2 322 -6 328 -8
13 -55 13 -55 0z"/>
<path d="M12850 9197 l-25 -10 23 -5 c26 -4 36 1 31 16 -3 6 -14 5 -29 -1z"/>
<path d="M13010 9185 c0 -10 60 -65 72 -65 6 0 -3 16 -22 35 -30 31 -50 43
-50 30z"/>
<path d="M12778 9173 c-10 -3 -18 -9 -18 -14 0 -12 37 -12 45 0 7 12 -5 19
-27 14z"/>
<path d="M12695 9130 c-3 -5 3 -10 14 -10 11 0 23 5 26 10 3 6 -3 10 -14 10
-11 0 -23 -4 -26 -10z"/>
<path d="M13125 9080 c10 -11 25 -20 34 -20 12 0 9 6 -9 20 -33 26 -48 26 -25
0z"/>
<path d="M8298 8933 c-79 -84 -165 -177 -199 -217 -51 -59 -201 -227 -229
-257 -14 -15 -45 -51 -70 -80 -25 -30 -64 -75 -87 -100 -24 -25 -43 -49 -43
-52 0 -17 -37 -47 -56 -47 -12 0 -35 -3 -51 -6 -27 -5 -30 -9 -28 -41 2 -26 9
-38 30 -49 37 -19 59 -18 80 6 12 13 16 28 12 48 -5 26 3 38 77 113 45 46 143
154 218 239 75 85 149 168 165 185 15 16 41 45 56 65 16 19 51 59 79 89 54 58
108 129 108 143 0 18 -20 6 -62 -39z"/>
<path d="M5595 8903 c-41 -6 -52 -18 -60 -63 -17 -99 87 -159 156 -91 23 24
29 38 29 74 0 41 -4 48 -34 66 -18 12 -40 20 -47 20 -8 -1 -27 -4 -44 -6z"/>
<path d="M0 8857 c0 -16 39 -36 90 -47 19 -5 50 -13 67 -19 76 -26 101 -33
148 -48 28 -8 68 -19 90 -24 22 -6 44 -14 49 -20 6 -5 22 -9 37 -9 15 0 32 -7
39 -15 7 -8 27 -15 44 -15 17 -1 42 -7 56 -15 14 -8 39 -14 56 -15 17 0 37 -7
44 -15 7 -8 22 -15 34 -15 18 0 160 -41 251 -72 17 -5 46 -14 65 -18 19 -4 50
-13 68 -19 17 -6 47 -16 65 -22 17 -6 49 -14 69 -19 21 -4 43 -12 50 -17 7 -6
24 -13 38 -16 14 -3 39 -10 55 -16 17 -6 57 -18 90 -27 33 -9 76 -22 95 -29
19 -7 89 -28 155 -45 66 -17 134 -36 150 -41 17 -6 44 -15 60 -19 44 -13 185
-59 220 -71 52 -20 98 -23 93 -8 -3 8 -13 16 -24 18 -10 1 -26 9 -34 16 -8 7
-26 15 -40 18 -71 17 -146 40 -154 48 -6 5 -20 9 -33 9 -12 0 -37 6 -55 14
-18 8 -62 22 -98 31 -74 20 -121 34 -235 70 -44 15 -98 30 -120 35 -37 8 -104
30 -150 49 -11 4 -47 16 -80 25 -33 10 -73 22 -90 28 -16 6 -43 13 -60 15 -16
3 -35 9 -41 14 -6 5 -31 13 -55 18 -63 14 -129 32 -169 46 -106 37 -168 56
-245 76 -22 6 -44 14 -49 20 -6 5 -22 9 -36 9 -14 0 -35 7 -46 15 -10 8 -35
15 -55 15 -19 0 -44 7 -55 15 -10 8 -32 15 -47 15 -16 0 -37 5 -48 10 -20 11
-238 80 -251 80 -5 0 -8 -6 -8 -13z"/>
<path d="M13146 8748 c-3 -13 -5 -39 -5 -58 l1 -35 10 35 c5 19 14 45 19 58 6
16 5 22 -5 22 -8 0 -16 -10 -20 -22z"/>
<path d="M5567 8647 c-8 -12 -19 -45 -26 -72 -6 -28 -20 -81 -31 -120 -12 -38
-23 -88 -27 -110 -3 -22 -12 -52 -19 -67 -8 -15 -14 -35 -14 -45 0 -10 -7 -31
-15 -47 -8 -15 -15 -39 -15 -52 0 -13 -6 -38 -14 -56 -13 -31 -27 -81 -45
-158 -5 -19 -19 -71 -31 -115 -13 -44 -26 -98 -30 -120 -5 -22 -13 -56 -19
-75 -13 -42 -14 -90 -2 -90 5 0 13 14 16 32 4 18 11 39 16 48 10 19 40 123 49
175 5 22 12 54 18 70 12 34 34 111 57 200 9 33 21 74 27 90 5 17 14 48 19 70
6 21 14 44 18 50 5 5 11 26 13 45 6 41 25 123 40 165 6 17 14 50 18 75 26 141
25 150 -3 107z"/>
<path d="M6907 8602 c-27 -29 -32 -47 -29 -107 2 -25 8 -33 35 -43 44 -16 70
-15 112 2 34 14 35 17 35 68 0 29 -4 58 -8 64 -10 16 -42 30 -83 38 -30 5 -39
2 -62 -22z"/>
<path d="M13101 8606 c-21 -22 -21 -23 -3 -39 23 -21 52 -22 52 -3 0 7 -6 25
-13 40 l-14 26 -22 -24z"/>
<path d="M13245 8500 c3 -5 13 -10 21 -10 8 0 14 5 14 10 0 6 -9 10 -21 10
-11 0 -17 -4 -14 -10z"/>
<path d="M6755 8404 c-38 -25 -74 -52 -78 -60 -4 -8 -16 -14 -26 -14 -9 0 -30
-13 -46 -30 -16 -16 -33 -30 -38 -30 -9 0 -77 -50 -106 -78 -7 -7 -36 -28 -65
-47 -28 -19 -62 -42 -76 -52 -24 -16 -240 -173 -305 -221 -16 -12 -61 -43
-100 -69 -38 -26 -72 -51 -75 -54 -3 -3 -30 -23 -60 -44 -30 -21 -59 -44 -63
-52 -4 -7 -12 -13 -18 -13 -8 0 -114 -74 -156 -110 -7 -5 -15 -10 -18 -10 -6
0 -8 -1 -80 -61 -27 -23 -51 -46 -53 -50 -6 -15 25 -10 38 6 7 8 16 15 21 15
5 0 44 26 88 58 43 31 109 77 145 102 87 59 276 195 299 215 9 8 19 15 22 15
5 0 203 143 225 163 8 7 35 27 60 44 122 81 153 103 260 183 63 47 140 103
170 123 59 39 130 99 130 110 0 16 -30 4 -95 -39z"/>
<path d="M7090 8438 c0 -14 88 -78 107 -78 7 0 16 -6 20 -14 4 -7 26 -23 48
-35 22 -12 54 -30 70 -41 17 -11 37 -23 45 -27 8 -4 36 -19 61 -35 46 -28 79
-36 79 -19 0 10 -123 92 -240 161 -8 5 -50 29 -92 54 -82 48 -98 54 -98 34z"/>
<path d="M11931 8371 c-53 -50 -39 -108 31 -130 40 -13 90 1 116 31 20 24 4
76 -33 104 -42 32 -76 31 -114 -5z"/>
<path d="M13444 8226 c-6 -17 11 -46 28 -46 14 0 5 53 -9 58 -7 2 -16 -4 -19
-12z"/>
<path d="M2397 8202 c-15 -10 -37 -29 -48 -41 -20 -21 -20 -26 -8 -68 10 -38
18 -48 52 -63 30 -14 47 -16 66 -8 37 13 82 59 77 77 -2 9 -7 27 -10 41 -5 26
-45 62 -81 73 -12 4 -31 -1 -48 -11z"/>
<path d="M7406 8078 c-11 -6 -33 -14 -50 -19 -43 -10 -96 -29 -128 -45 -14 -8
-34 -14 -45 -14 -10 0 -27 -7 -37 -15 -11 -8 -27 -15 -37 -15 -9 0 -30 -7 -45
-15 -16 -8 -36 -15 -45 -15 -9 0 -22 -7 -29 -15 -7 -8 -19 -15 -26 -15 -20 0
-227 -70 -238 -81 -6 -5 -21 -9 -34 -9 -13 0 -36 -6 -50 -14 -15 -7 -52 -21
-82 -31 -30 -9 -68 -23 -85 -30 -89 -38 -107 -45 -123 -45 -10 0 -22 -4 -27
-8 -10 -8 -105 -46 -140 -55 -11 -3 -65 -22 -120 -42 -55 -20 -113 -40 -130
-45 -16 -4 -55 -18 -85 -30 -30 -12 -67 -25 -81 -30 -25 -7 -32 -11 -97 -43
-19 -9 -44 -17 -56 -17 -21 0 -83 -27 -109 -48 -7 -5 -25 -12 -41 -16 -22 -6
-26 -10 -17 -19 9 -9 19 -8 42 6 17 9 39 17 49 17 10 0 51 13 91 30 41 16 81
30 89 30 8 0 24 7 34 15 11 8 29 15 40 15 12 0 30 7 40 15 11 8 27 15 37 15 9
0 30 7 45 15 16 8 36 15 45 15 8 0 24 7 35 15 10 8 30 15 44 15 14 0 36 7 50
15 14 8 35 14 46 15 12 0 27 7 34 15 7 8 27 15 44 15 17 0 40 7 50 15 11 8 28
15 39 15 10 0 31 6 45 14 15 7 54 23 87 34 33 11 85 30 115 42 75 29 218 79
255 89 17 4 39 13 50 18 11 6 47 19 80 29 33 10 69 24 80 31 11 7 29 13 40 13
11 0 29 7 39 15 11 8 27 15 37 15 9 0 30 7 45 15 16 8 36 15 45 15 9 0 22 7
29 15 7 8 21 15 31 15 10 0 33 6 51 14 18 7 60 22 92 33 33 11 62 25 64 31 5
15 -56 15 -82 0z"/>
<path d="M2590 8072 c0 -22 77 -57 158 -71 24 -5 48 -13 54 -19 7 -7 21 -12
33 -12 11 0 33 -7 49 -15 15 -8 43 -15 61 -15 18 0 38 -7 45 -15 7 -8 23 -15
36 -15 13 0 38 -6 56 -14 49 -20 134 -46 151 -46 8 0 28 -7 43 -15 16 -8 41
-15 55 -15 14 0 34 -7 45 -15 10 -8 33 -15 49 -15 17 0 41 -7 55 -15 14 -8 36
-14 50 -15 14 0 38 -7 54 -15 15 -8 37 -15 48 -15 11 0 32 -6 46 -14 45 -22
144 -54 244 -77 26 -6 50 -15 54 -20 3 -5 15 -9 27 -9 12 0 39 -6 62 -14 43
-14 104 -33 200 -61 33 -10 75 -24 93 -31 18 -8 41 -14 52 -14 11 0 34 -6 52
-14 58 -24 163 -57 238 -76 19 -4 49 -13 65 -18 40 -14 134 -40 167 -46 14 -3
34 -9 45 -12 12 -4 8 3 -11 20 -17 15 -41 26 -57 26 -15 0 -40 6 -56 14 -57
28 -104 46 -123 46 -11 0 -34 6 -52 14 -54 22 -134 46 -155 46 -11 0 -28 7
-39 15 -10 8 -30 15 -44 15 -14 0 -36 7 -50 15 -14 8 -35 14 -47 15 -12 0 -37
6 -55 14 -32 14 -62 23 -223 67 -44 12 -87 25 -95 29 -8 4 -42 15 -75 25 -33
9 -78 23 -100 31 -23 8 -50 14 -61 14 -11 0 -25 5 -31 11 -6 6 -26 14 -44 19
-19 4 -47 13 -64 18 -16 6 -57 18 -90 27 -33 9 -73 21 -90 27 -16 5 -70 21
-120 35 -49 13 -94 29 -99 34 -6 5 -23 9 -39 9 -16 0 -41 6 -55 14 -15 8 -54
22 -87 31 -113 32 -160 47 -188 61 -16 8 -40 14 -53 14 -14 0 -34 5 -45 10
-10 6 -38 14 -61 19 -24 5 -51 12 -60 16 -10 4 -18 3 -18 -3z"/>
<path d="M2270 8015 c-7 -8 -19 -15 -26 -15 -8 0 -32 -11 -54 -25 -22 -14 -44
-25 -50 -25 -6 0 -13 -6 -16 -14 -3 -8 -18 -19 -32 -25 -15 -6 -40 -20 -57
-31 -16 -11 -37 -23 -45 -27 -8 -3 -33 -18 -55 -32 -22 -14 -55 -34 -74 -44
-19 -10 -52 -31 -75 -45 -23 -14 -57 -35 -76 -45 -19 -11 -39 -26 -43 -33 -4
-8 -14 -14 -22 -14 -8 0 -60 -27 -117 -61 -118 -69 -105 -61 -226 -136 -52
-32 -117 -71 -145 -86 -29 -16 -66 -40 -84 -53 -17 -13 -35 -24 -40 -24 -4 0
-21 -14 -37 -30 -41 -42 -60 -45 -90 -15 -30 30 -43 26 -62 -21 -8 -19 -19
-34 -24 -34 -6 0 -10 -9 -10 -20 0 -11 5 -20 10 -20 6 0 10 7 10 15 0 9 16 23
35 32 27 13 42 14 68 6 32 -10 36 -8 61 23 15 19 35 34 45 34 10 0 24 7 31 15
7 8 20 15 30 15 10 0 23 7 30 15 7 8 16 15 21 15 5 0 28 12 52 27 55 36 68 44
119 71 24 13 60 37 80 53 20 16 41 29 47 29 5 0 105 57 221 128 267 160 267
161 315 186 22 12 68 41 103 64 35 23 66 42 69 42 3 0 25 14 50 30 24 17 46
30 48 30 7 0 55 47 55 54 0 12 -28 6 -40 -9z"/>
<path d="M9918 7843 c-36 -6 -48 -22 -55 -82 -7 -61 13 -101 52 -101 13 0 27
-4 30 -10 3 -5 19 -10 35 -10 42 0 80 58 80 122 0 42 -3 48 -34 67 -32 20 -51
23 -108 14z"/>
<path d="M0 7335 c0 -52 5 -106 12 -120 13 -28 42 -35 34 -7 -10 32 -26 147
-26 185 0 20 -4 37 -10 37 -6 0 -10 -38 -10 -95z"/>
<path d="M5126 7380 c-55 -35 -81 -113 -55 -163 6 -12 25 -37 42 -54 28 -30
36 -33 89 -33 52 0 62 4 94 33 62 56 61 161 -3 210 -45 34 -122 38 -167 7z
m102 -117 c-2 -10 -10 -18 -18 -18 -8 0 -16 8 -18 18 -2 12 3 17 18 17 15 0
20 -5 18 -17z"/>
<path d="M4830 7234 c-25 -7 -67 -13 -93 -13 -27 -1 -58 -6 -70 -13 -12 -6
-60 -15 -107 -19 -134 -11 -281 -29 -325 -40 -22 -6 -83 -14 -135 -19 -52 -5
-111 -14 -130 -20 -19 -5 -57 -10 -85 -10 -27 -1 -79 -7 -115 -15 -36 -8 -88
-14 -116 -15 -28 0 -73 -7 -100 -15 -27 -8 -69 -15 -94 -15 -25 0 -63 -5 -85
-11 -22 -6 -83 -15 -135 -19 -131 -11 -254 -29 -322 -46 -32 -8 -81 -14 -109
-14 -27 0 -59 -5 -71 -11 -11 -6 -66 -15 -121 -20 -56 -5 -129 -13 -162 -18
-33 -5 -112 -16 -175 -25 -63 -9 -146 -20 -185 -26 -38 -6 -108 -15 -155 -20
-47 -6 -104 -14 -127 -20 -23 -5 -64 -10 -91 -10 -27 0 -71 -7 -98 -15 -27 -8
-69 -15 -94 -15 -25 0 -72 -7 -105 -15 -33 -8 -84 -14 -113 -15 -29 0 -69 -7
-89 -15 -19 -8 -53 -15 -74 -15 -22 0 -39 -4 -39 -9 0 -13 36 -24 58 -17 9 3
73 12 142 21 69 8 141 19 160 25 19 5 67 10 105 10 39 0 76 5 82 11 6 6 57 15
114 20 57 5 120 13 139 19 19 5 55 10 80 10 25 1 72 7 105 15 33 8 85 15 115
15 30 0 88 6 130 14 84 16 281 44 350 50 74 6 212 26 260 38 25 6 74 14 110
18 161 18 395 51 500 71 30 6 97 15 147 19 51 5 110 14 130 19 21 6 63 11 94
11 31 0 78 7 105 15 27 8 76 15 109 15 33 0 85 7 115 15 30 8 73 15 95 15 22
0 72 7 110 15 39 8 95 15 125 15 30 0 80 7 110 15 30 8 74 15 96 15 23 0 64 7
90 14 27 8 62 18 78 21 23 5 27 8 15 16 -19 12 -95 9 -149 -7z"/>
<path d="M1000 7170 c0 -5 19 -18 43 -29 23 -12 56 -30 72 -41 17 -11 36 -23
43 -26 10 -5 11 -24 6 -77 -5 -51 -4 -68 5 -63 6 4 11 12 11 17 0 6 12 35 26
64 14 30 23 59 19 64 -3 6 -33 20 -66 32 -33 12 -62 26 -65 30 -3 5 -16 9 -29
9 -12 0 -25 7 -29 15 -6 16 -36 21 -36 5z"/>
<path d="M43 7118 c7 -58 22 -81 32 -49 8 25 -12 101 -27 101 -7 0 -9 -17 -5
-52z"/>
<path d="M698 7068 c-45 -16 -30 -46 18 -34 15 4 24 14 24 26 0 22 -3 23 -42
8z"/>
<path d="M620 7025 c-7 -8 -19 -15 -27 -15 -8 0 -34 -13 -58 -30 -24 -16 -46
-30 -50 -30 -10 0 -65 -43 -65 -52 0 -11 37 -10 44 1 4 5 25 19 49 30 23 11
56 33 72 49 17 15 38 31 48 35 9 3 17 11 17 17 0 15 -16 12 -30 -5z"/>
<path d="M80 6983 c0 -15 5 -35 10 -43 7 -11 10 -6 10 22 0 20 -4 40 -10 43
-6 4 -10 -6 -10 -22z"/>
<path d="M1139 6908 c-6 -12 -4 -48 2 -48 5 0 9 11 9 25 0 21 -6 33 -11 23z"/>
<path d="M357 6858 c-22 -16 -25 -23 -15 -29 22 -14 38 -10 38 9 0 10 5 23 12
30 20 20 -5 13 -35 -10z"/>
<path d="M205 6840 c3 -5 26 -10 51 -10 28 0 43 4 39 10 -3 6 -26 10 -51 10
-28 0 -43 -4 -39 -10z"/>
<path d="M1108 6804 c-5 -4 -8 -19 -8 -33 0 -18 3 -22 11 -14 6 6 9 21 7 33
-1 12 -6 18 -10 14z"/>
<path d="M11260 6590 c-8 -5 -24 -10 -36 -10 -26 0 -83 -69 -96 -116 -8 -29
-6 -41 11 -70 12 -19 21 -43 21 -53 0 -36 32 -50 114 -53 78 -2 79 -2 108 33
16 18 37 43 48 54 16 17 18 29 11 80 -8 74 -17 88 -47 82 -17 -3 -25 1 -30 15
-3 10 -21 25 -41 33 -42 18 -43 18 -63 5z m77 -92 c37 -13 41 -36 19 -98 -16
-44 -59 -58 -111 -36 -33 14 -35 17 -35 65 0 40 4 53 22 65 27 19 60 20 105 4z"/>
<path d="M8775 6521 c-47 -21 -75 -58 -75 -100 0 -45 9 -60 51 -81 56 -29 82
-26 137 16 2 1 8 22 13 45 15 64 4 94 -42 118 -22 12 -41 21 -42 21 -1 0 -20
-9 -42 -19z"/>
<path d="M90 6490 c0 -5 18 -10 41 -10 24 0 38 4 34 10 -3 6 -22 10 -41 10
-19 0 -34 -4 -34 -10z"/>
<path d="M230 6490 c-11 -7 -8 -11 15 -20 17 -7 48 -15 70 -18 22 -3 45 -11
50 -19 6 -7 32 -16 59 -19 39 -6 48 -4 44 7 -2 8 -22 18 -44 23 -21 5 -70 19
-107 32 -79 28 -68 26 -87 14z"/>
<path d="M1845 6490 c-6 -10 -23 -19 -147 -74 -57 -25 -75 -46 -40 -46 10 0
27 7 38 15 10 8 26 15 34 15 8 0 27 7 42 14 16 8 47 18 71 21 43 7 43 7 85
-49 23 -30 42 -57 42 -60 0 -3 16 -31 35 -63 49 -82 47 -108 -18 -161 -129
-106 -178 -166 -97 -120 22 13 40 29 40 35 0 7 12 20 27 30 14 10 42 33 62 51
20 19 48 40 63 48 37 19 35 31 -10 79 -36 37 -91 122 -152 231 -17 31 -31 44
-47 44 -12 0 -25 -5 -28 -10z"/>
<path d="M1190 6410 c0 -5 9 -14 20 -20 19 -10 20 -10 8 9 -13 22 -28 28 -28
11z"/>
<path d="M1590 6360 c-41 -23 -102 -50 -115 -50 -8 0 -15 -4 -15 -10 0 -27
108 7 150 46 25 24 12 33 -20 14z"/>
<path d="M625 6340 c3 -5 15 -10 26 -10 11 0 17 5 14 10 -3 6 -15 10 -26 10
-11 0 -17 -4 -14 -10z"/>
<path d="M1252 6338 c3 -7 13 -15 22 -16 12 -3 17 1 14 10 -3 7 -13 15 -22 16
-12 3 -17 -1 -14 -10z"/>
<path d="M685 6310 c3 -5 11 -10 16 -10 6 0 17 -7 25 -15 9 -8 23 -15 32 -15
12 0 9 7 -13 25 -29 24 -72 35 -60 15z"/>
<path d="M780 6250 c0 -5 5 -10 10 -10 12 0 62 -34 100 -67 13 -13 31 -23 39
-23 23 0 -48 68 -94 90 -47 23 -55 24 -55 10z"/>
<path d="M10085 6230 c-31 -12 -95 -79 -95 -98 1 -29 23 -59 67 -91 47 -34 78
-39 87 -16 3 9 19 21 36 26 22 8 31 19 36 45 10 52 -2 79 -48 113 -44 33 -51
35 -83 21z"/>
<path d="M972 6110 c13 -20 38 -28 38 -12 0 12 -23 32 -37 32 -11 0 -11 -4 -1
-20z"/>
<path d="M3303 6034 c-14 -6 -17 -51 -7 -78 8 -20 33 -20 62 0 17 12 22 24 20
47 -3 28 -7 32 -33 34 -16 1 -36 0 -42 -3z"/>
<path d="M7910 6021 c-20 -39 -12 -75 24 -99 28 -19 38 -21 55 -13 25 14 38
73 22 107 -9 20 -18 24 -50 24 -30 0 -43 -5 -51 -19z"/>
<path d="M1106 5965 c9 -14 20 -25 25 -25 5 0 9 -6 9 -12 1 -7 14 -24 30 -38
17 -13 30 -30 30 -37 0 -8 7 -16 15 -19 8 -4 15 -13 15 -20 0 -18 40 -74 53
-74 13 0 -3 42 -29 73 -13 16 -24 33 -24 39 0 6 -10 21 -22 33 -13 12 -39 40
-58 63 -39 47 -72 59 -44 17z"/>
<path d="M1780 5915 c0 -8 4 -15 9 -15 5 0 14 7 21 15 10 13 9 15 -9 15 -12 0
-21 -6 -21 -15z"/>
<path d="M282 5764 c-24 -17 -29 -55 -12 -98 11 -30 37 -33 80 -11 26 13 30
21 30 55 0 40 -25 70 -60 70 -9 0 -26 -7 -38 -16z"/>
<path d="M1290 5716 c0 -2 9 -24 20 -48 19 -43 50 -81 50 -61 0 18 -50 113
-60 113 -6 0 -10 -2 -10 -4z"/>
<path d="M8080 5688 c-25 -42 -25 -42 6 -67 38 -30 78 -28 92 4 17 37 15 51
-10 75 -33 30 -65 26 -88 -12z"/>
<path d="M1700 5702 c0 -5 7 -17 15 -28 8 -10 15 -29 15 -41 0 -12 5 -25 10
-28 16 -10 12 31 -7 69 -17 33 -33 47 -33 28z"/>
<path d="M8225 5651 c-5 -9 14 -14 95 -25 19 -2 67 -9 105 -15 110 -16 264
-33 335 -38 36 -2 85 -8 110 -13 25 -5 97 -12 160 -15 63 -4 137 -13 164 -21
27 -8 75 -14 106 -14 31 0 80 -6 110 -14 30 -7 102 -16 160 -19 58 -4 121 -11
140 -17 19 -5 76 -10 125 -10 62 0 97 -4 111 -14 14 -10 58 -16 130 -19 60 -3
147 -10 194 -16 76 -10 160 -7 147 5 -2 3 -42 9 -88 14 -163 17 -265 31 -330
46 -37 8 -93 14 -125 14 -33 0 -90 7 -129 15 -38 8 -104 15 -145 15 -42 0
-102 7 -133 15 -32 8 -87 15 -122 15 -35 0 -90 7 -122 15 -31 8 -95 15 -141
15 -46 0 -93 5 -105 12 -12 7 -78 15 -147 19 -128 7 -228 18 -405 45 -114 16
-191 18 -200 5z"/>
<path d="M7960 5610 c-8 -5 -23 -10 -33 -10 -10 0 -45 -13 -79 -30 -33 -16
-66 -30 -73 -30 -7 0 -26 -6 -42 -14 -15 -8 -48 -22 -73 -31 -25 -9 -52 -21
-60 -26 -8 -5 -22 -12 -30 -15 -8 -3 -37 -15 -65 -25 -27 -11 -59 -24 -70 -28
-102 -41 -184 -71 -196 -71 -8 0 -23 -7 -33 -15 -11 -8 -27 -15 -37 -15 -9 0
-22 -7 -29 -15 -7 -8 -21 -15 -30 -15 -10 0 -31 -6 -47 -14 -55 -27 -100 -45
-218 -90 -66 -25 -133 -53 -148 -61 -16 -8 -36 -15 -46 -15 -9 0 -26 -7 -37
-15 -10 -8 -26 -15 -34 -15 -8 0 -52 -18 -98 -40 -46 -22 -89 -40 -96 -40 -6
0 -43 -16 -82 -35 -38 -19 -77 -35 -86 -35 -9 0 -31 -7 -50 -16 -76 -38 -90
-44 -106 -44 -9 0 -39 -11 -67 -25 -27 -13 -57 -25 -65 -25 -8 0 -33 -9 -55
-20 -22 -11 -44 -19 -48 -20 -5 0 -15 -7 -23 -15 -9 -8 -26 -15 -38 -15 -13 0
-29 -7 -36 -15 -7 -8 -21 -15 -30 -15 -10 0 -31 -6 -47 -14 -15 -7 -46 -21
-68 -31 -22 -9 -53 -23 -70 -30 -16 -8 -41 -17 -54 -20 -14 -4 -19 -11 -14
-16 17 -17 301 84 445 158 14 7 32 13 39 13 6 0 40 13 75 30 34 16 75 32 91
36 15 4 51 18 80 31 28 12 60 23 71 23 11 0 25 7 32 15 7 8 20 15 29 15 10 0
26 7 37 15 10 8 27 15 37 15 9 0 25 4 35 9 33 19 108 50 202 86 52 20 99 41
105 46 5 5 19 9 31 9 13 0 25 4 28 9 3 5 29 16 58 26 29 9 71 25 93 35 22 10
60 26 85 35 25 9 72 30 105 46 33 16 68 29 77 29 9 0 19 4 22 9 3 5 38 19 78
32 40 12 80 29 89 36 8 7 23 13 32 13 9 0 46 14 80 30 35 17 69 30 75 30 6 0
23 6 39 14 45 23 95 44 145 62 26 9 53 23 59 30 6 8 24 14 40 14 15 0 31 4 34
10 3 5 23 14 43 20 20 5 48 19 62 30 l25 20 -25 0 c-14 0 -32 -5 -40 -10z"/>
<path d="M8180 5556 c0 -8 5 -18 11 -21 5 -4 14 -17 20 -28 5 -12 13 -29 19
-37 27 -42 100 -168 100 -174 0 -14 104 -145 112 -140 12 8 -34 92 -144 263
-9 14 -26 42 -36 62 -21 37 -65 89 -76 89 -3 0 -6 -6 -6 -14z"/>
<path d="M1381 5530 c0 -8 6 -33 14 -55 8 -22 15 -54 15 -72 0 -19 10 -43 25
-60 l24 -28 0 30 c0 17 -6 39 -14 49 -8 11 -15 32 -15 47 0 15 -5 31 -11 35
-6 3 -17 20 -25 38 -7 17 -13 24 -13 16z"/>
<path d="M10587 5490 c-38 -30 -67 -83 -67 -122 0 -69 73 -138 146 -138 40 0
107 48 123 89 22 53 7 114 -40 155 -33 31 -46 36 -88 36 -33 0 -56 -6 -74 -20z
m88 -121 c0 -7 -8 -15 -17 -17 -18 -3 -25 18 -11 32 10 10 28 1 28 -15z"/>
<path d="M3130 5440 c-29 -29 -26 -81 5 -110 23 -21 28 -22 65 -11 47 14 62
37 54 81 -12 57 -84 80 -124 40z"/>
<path d="M2076 5351 c-10 -15 31 -23 131 -26 110 -3 134 -15 153 -76 l14 -44
7 30 c10 45 10 115 0 115 -5 0 -74 2 -154 5 -88 4 -148 2 -151 -4z"/>
<path d="M10270 5318 c-57 -7 -139 -19 -275 -38 -44 -7 -105 -18 -136 -26 -30
-8 -74 -14 -97 -14 -22 0 -51 -4 -64 -10 -13 -5 -54 -14 -93 -20 -179 -25
-389 -59 -437 -71 -20 -5 -79 -13 -131 -18 -53 -5 -104 -14 -115 -20 -12 -6
-40 -11 -64 -11 -24 -1 -61 -7 -83 -15 -22 -8 -54 -15 -72 -15 -17 0 -35 -5
-38 -10 -12 -20 26 -22 112 -6 49 9 103 16 122 16 19 0 57 6 85 14 59 17 160
34 262 46 38 4 88 13 110 19 21 6 64 11 94 11 30 1 66 7 80 15 14 8 48 14 77
15 28 0 64 5 80 11 15 6 62 15 103 20 122 14 246 36 266 47 11 5 52 12 92 15
40 3 87 10 105 16 17 5 52 14 77 18 37 7 40 10 20 14 -14 2 -50 1 -80 -3z"/>
<path d="M1445 5300 c-7 -12 2 -30 16 -30 12 0 12 27 0 35 -5 3 -12 1 -16 -5z"/>
<path d="M10880 5291 c0 -6 12 -13 28 -16 15 -4 34 -10 42 -16 8 -5 20 -11 25
-13 6 -1 26 -9 45 -16 19 -7 49 -15 65 -18 17 -2 39 -11 50 -18 11 -8 28 -14
38 -14 10 0 31 -6 45 -14 15 -7 54 -21 87 -31 33 -9 72 -22 87 -27 14 -5 41
-13 60 -18 18 -5 65 -20 103 -34 39 -14 79 -26 91 -26 11 0 29 -7 40 -15 10
-8 28 -15 39 -15 11 0 30 -6 41 -14 26 -18 76 -24 81 -9 2 6 -6 14 -19 18 -23
6 -74 28 -113 48 -11 6 -36 14 -55 18 -19 4 -48 12 -65 17 -79 26 -104 34
-150 48 -27 8 -61 18 -75 20 -14 3 -39 12 -57 20 -17 8 -36 14 -43 14 -7 0
-24 6 -38 14 -34 17 -90 37 -122 43 -14 2 -38 10 -55 18 -90 38 -175 56 -175
36z"/>
<path d="M556 5245 c-9 -13 -16 -29 -16 -34 0 -5 -20 -30 -45 -54 -25 -25 -45
-50 -45 -56 0 -6 -8 -15 -19 -20 -16 -9 -20 -26 -24 -113 -3 -57 -9 -118 -13
-137 -10 -51 13 -36 73 49 54 76 60 103 16 74 -21 -13 -27 -14 -34 -3 -10 16
-10 63 -1 97 10 33 110 132 134 132 29 0 116 -95 130 -143 15 -50 2 -72 -41
-72 -36 0 -38 -4 -13 -31 10 -10 31 -39 47 -63 50 -74 55 -68 55 67 l0 120
-40 40 c-22 22 -40 43 -40 47 0 4 -12 22 -27 40 -16 18 -36 45 -46 59 -22 32
-30 32 -51 1z"/>
<path d="M10415 5239 c-16 -10 -37 -22 -45 -26 -8 -4 -34 -20 -56 -35 -23 -15
-46 -28 -51 -28 -6 0 -29 -13 -51 -30 -23 -16 -48 -30 -56 -30 -7 0 -19 -7
-26 -15 -7 -8 -17 -15 -22 -15 -6 0 -27 -12 -47 -28 -20 -15 -52 -36 -71 -45
-37 -19 -66 -36 -179 -107 -89 -55 -180 -108 -203 -116 -9 -3 -19 -12 -22 -20
-3 -8 -10 -14 -15 -14 -8 0 -270 -151 -331 -190 -8 -6 -22 -13 -30 -17 -8 -3
-31 -18 -50 -32 -19 -15 -55 -37 -80 -50 -25 -13 -58 -34 -75 -45 -32 -23 -95
-59 -135 -79 -14 -6 -29 -15 -35 -19 -34 -26 -144 -97 -183 -118 -54 -29 -101
-59 -119 -76 -7 -7 -18 -14 -25 -17 -7 -2 -10 -8 -6 -12 7 -8 123 47 183 86
17 10 38 22 48 25 9 4 17 10 17 14 0 5 10 12 22 16 12 3 39 19 61 35 22 16 46
29 52 29 7 0 15 7 19 15 3 8 10 15 16 15 6 0 111 61 234 135 123 74 227 135
231 135 3 0 25 13 48 28 23 15 51 33 62 40 27 16 150 93 183 114 15 10 36 22
47 28 20 10 33 17 70 38 11 7 38 21 60 33 22 12 56 35 76 50 20 16 41 29 46
29 6 0 29 14 51 30 23 17 45 30 48 30 4 0 22 11 40 25 18 14 43 30 56 35 13 6
37 19 53 30 17 11 39 24 50 30 11 6 34 19 50 30 17 11 37 23 45 27 20 9 69 43
94 66 19 17 19 17 0 16 -10 0 -32 -9 -49 -20z"/>
<path d="M1468 5138 c5 -121 22 -159 22 -47 0 40 -3 91 -6 112 -12 70 -20 37
-16 -65z"/>
<path d="M10420 5121 c-47 -48 -110 -116 -140 -152 -64 -74 -132 -150 -175
-194 -17 -16 -46 -50 -65 -75 -19 -25 -55 -65 -80 -91 -25 -25 -83 -89 -130
-143 -47 -54 -99 -115 -117 -134 -29 -33 -34 -52 -14 -52 10 0 67 56 116 114
22 26 69 79 105 119 36 40 97 108 135 151 39 44 94 107 124 140 30 34 61 68
70 77 9 8 39 42 66 75 28 32 75 86 105 119 128 139 127 178 0 46z"/>
<path d="M10830 5203 c0 -5 6 -15 13 -23 16 -19 239 -234 436 -420 85 -80 190
-180 235 -223 44 -44 99 -93 121 -110 22 -18 87 -79 145 -137 58 -58 131 -127
162 -155 30 -27 102 -95 160 -150 96 -93 336 -320 453 -429 28 -26 63 -54 78
-62 28 -15 28 -15 16 8 -13 25 -111 124 -299 298 -68 63 -172 162 -232 219
-59 58 -124 118 -144 135 -20 17 -77 71 -127 119 -51 49 -112 105 -137 125
-24 21 -58 52 -75 71 -16 19 -47 51 -69 70 -21 20 -73 69 -115 110 -42 40
-125 119 -185 174 -59 54 -149 140 -200 189 -138 135 -163 157 -191 168 -14 5
-25 14 -25 20 0 5 -4 10 -10 10 -5 0 -10 -3 -10 -7z"/>
<path d="M10682 5105 c-1 -56 1 -66 10 -48 7 15 7 37 0 70 l-10 48 0 -70z"/>
<path d="M12075 5140 c-4 -6 -21 -17 -40 -24 -51 -22 -63 -56 -44 -126 3 -10
-10 -16 -49 -21 -54 -7 -82 -19 -45 -19 11 0 32 -9 46 -20 14 -11 30 -20 36
-20 6 0 15 -8 20 -18 20 -37 190 -68 231 -42 13 8 13 13 2 30 -11 18 -10 23 8
38 37 31 26 172 -13 172 -8 0 -26 14 -42 30 -22 23 -38 30 -66 30 -21 0 -41
-5 -44 -10z m109 -116 c20 -30 22 -39 13 -64 -21 -56 -93 -63 -152 -16 l-30
24 22 46 c23 46 23 46 73 46 45 0 51 -3 74 -36z"/>
<path d="M8484 5110 c-33 -13 -64 -59 -64 -94 0 -38 53 -96 88 -96 40 0 81 29
98 68 14 34 14 40 -2 69 -9 18 -31 39 -49 47 -37 18 -41 18 -71 6z"/>
<path d="M10774 5085 c9 -62 34 -131 65 -185 5 -8 16 -40 26 -70 10 -30 30
-83 46 -118 16 -34 29 -66 29 -71 0 -5 8 -24 17 -43 9 -18 22 -45 30 -60 7
-14 13 -33 13 -41 0 -8 7 -20 15 -27 8 -7 15 -23 15 -36 0 -13 7 -40 16 -61 9
-21 23 -53 31 -70 25 -60 42 -98 72 -166 17 -37 31 -75 31 -84 0 -9 6 -24 13
-32 7 -9 21 -36 31 -61 11 -25 25 -59 32 -77 8 -17 14 -36 14 -41 0 -6 14 -40
30 -77 17 -37 30 -71 30 -76 0 -5 14 -38 30 -72 17 -35 30 -67 30 -71 0 -4 20
-48 45 -98 25 -50 45 -99 45 -108 0 -22 37 -107 50 -115 6 -3 10 -18 10 -32 0
-13 6 -37 14 -51 14 -28 36 -78 59 -134 7 -18 28 -62 45 -98 18 -36 32 -71 32
-77 0 -6 7 -24 15 -39 8 -16 15 -36 15 -45 0 -9 7 -22 15 -29 8 -7 15 -21 15
-32 0 -11 6 -32 13 -46 8 -15 21 -42 30 -60 9 -19 17 -41 17 -51 0 -9 7 -26
15 -37 8 -10 15 -29 15 -40 0 -38 29 -94 48 -94 25 0 47 16 33 24 -26 16 -171
354 -171 399 0 10 -7 20 -15 23 -8 4 -15 14 -15 23 0 10 -7 26 -15 37 -8 10
-15 29 -15 41 0 12 -7 34 -15 50 -37 72 -79 174 -152 368 -8 22 -28 67 -44
100 -16 33 -29 66 -29 73 0 7 -14 43 -31 80 -18 37 -38 82 -45 100 -8 17 -20
47 -28 65 -7 17 -21 52 -31 77 -19 51 -35 90 -57 140 -8 19 -23 60 -33 90 -10
30 -24 62 -31 71 -8 8 -14 20 -14 25 0 10 -79 200 -121 291 -16 35 -29 73 -29
87 0 13 -7 29 -15 36 -8 7 -15 21 -15 30 0 10 -7 31 -15 47 -14 27 -27 57 -79
177 -14 32 -26 64 -26 71 0 7 -7 18 -15 25 -8 7 -15 20 -15 30 0 10 -18 53
-41 96 -27 53 -39 69 -35 49z"/>
<path d="M10586 5084 c-3 -9 -6 -28 -6 -44 0 -15 -7 -41 -15 -56 -8 -16 -15
-48 -15 -71 0 -24 -7 -60 -15 -80 -8 -21 -24 -93 -34 -160 -11 -68 -25 -131
-31 -142 -5 -11 -10 -34 -10 -52 0 -40 -28 -191 -46 -249 -8 -25 -14 -58 -14
-75 -1 -16 -7 -41 -15 -55 -8 -14 -14 -41 -15 -61 0 -20 -7 -56 -15 -79 -8
-23 -15 -59 -15 -80 0 -21 -7 -57 -15 -80 -8 -23 -15 -59 -15 -79 0 -20 -5
-42 -10 -47 -6 -6 -15 -44 -20 -85 -10 -89 -28 -178 -46 -241 -8 -26 -14 -71
-14 -100 -1 -31 -7 -61 -15 -72 -8 -11 -15 -35 -15 -54 0 -19 -7 -55 -15 -81
-41 -132 -60 -271 -36 -271 11 0 21 25 21 55 0 12 7 36 15 51 8 16 15 43 15
59 0 17 7 52 15 79 8 27 15 67 15 89 0 22 7 60 15 86 8 25 21 80 29 121 8 41
20 102 26 135 7 33 16 85 21 115 4 30 17 93 29 140 11 47 24 114 29 150 5 36
14 78 20 93 6 16 11 43 11 62 0 19 5 46 11 62 18 45 41 153 46 218 2 33 11 74
19 92 8 17 14 47 14 66 0 20 5 48 11 64 6 15 15 57 19 93 5 36 20 110 34 165
14 55 26 114 26 130 0 17 7 48 15 70 16 44 20 135 6 135 -5 0 -12 -7 -15 -16z"/>
<path d="M10703 4871 c7 -138 14 -218 37 -386 6 -44 15 -137 20 -207 4 -70 13
-142 18 -160 6 -18 13 -85 16 -148 4 -63 11 -135 16 -160 5 -25 9 -82 10 -126
0 -49 6 -96 15 -117 9 -22 15 -69 15 -119 0 -46 7 -110 15 -143 8 -33 14 -103
15 -156 0 -61 6 -116 17 -150 25 -83 37 -84 29 -4 -4 39 -11 125 -16 192 -4
67 -12 128 -16 134 -4 7 -11 65 -15 129 -3 63 -11 147 -17 185 -14 90 -37 309
-57 550 -9 105 -22 231 -30 280 -8 50 -17 132 -20 183 -3 51 -10 103 -14 115
-5 12 -12 70 -16 130 -4 59 -12 110 -18 114 -7 4 -8 -36 -4 -136z"/>
<path d="M8240 4985 c-19 -7 -60 -14 -90 -14 -30 -1 -80 -8 -110 -16 -30 -8
-74 -15 -98 -15 -23 0 -59 -7 -79 -15 -19 -8 -59 -15 -87 -15 -28 -1 -69 -7
-91 -15 -22 -8 -66 -15 -98 -15 -32 0 -66 -4 -76 -10 -10 -5 -56 -12 -102 -15
-46 -4 -101 -13 -122 -21 -20 -8 -58 -14 -83 -14 -25 0 -54 -5 -64 -10 -11 -6
-56 -14 -102 -20 -117 -13 -215 -30 -272 -46 -26 -8 -62 -14 -80 -14 -17 0
-60 -6 -96 -14 -36 -8 -119 -22 -185 -31 -66 -9 -138 -21 -160 -26 -22 -5 -78
-14 -126 -19 -47 -5 -97 -14 -113 -19 -15 -6 -49 -11 -75 -11 -27 0 -68 -7
-91 -15 -23 -8 -60 -15 -81 -15 -21 0 -56 -6 -76 -14 -21 -8 -67 -17 -102 -19
-35 -3 -68 -10 -74 -16 -17 -17 133 -14 183 4 23 8 66 15 94 15 28 1 69 7 91
15 22 8 55 15 74 15 33 0 156 19 271 42 30 6 84 14 120 18 36 4 83 13 105 19
22 6 61 11 87 11 26 0 59 5 74 10 15 6 62 15 103 20 110 13 202 30 236 42 17
6 64 14 105 19 41 4 93 12 115 18 22 6 62 11 88 11 27 0 58 5 70 12 12 6 56
15 97 19 41 4 129 17 195 29 66 11 149 24 185 29 107 15 202 31 250 43 25 6
79 14 120 18 65 6 139 20 190 36 13 5 13 6 0 14 -21 13 -79 11 -120 -5z"/>
<path d="M2423 4940 c-27 -16 -33 -26 -33 -55 0 -28 5 -37 30 -50 32 -17 68
-19 89 -6 19 12 27 97 11 116 -17 21 -59 19 -97 -5z"/>
<path d="M1479 4945 c-12 -19 -21 -215 -10 -215 5 0 13 15 16 33 8 40 2 196
-6 182z"/>
<path d="M2230 4930 l-45 -7 40 -1 c22 -1 47 3 55 8 8 5 11 9 5 8 -5 0 -30 -4
-55 -8z"/>
<path d="M2074 4895 c-11 -8 -41 -15 -71 -15 -28 0 -55 -5 -59 -11 -12 -20
139 3 211 32 15 6 10 8 -21 8 -22 1 -49 -6 -60 -14z"/>
<path d="M554 4823 c-11 -16 -23 -36 -27 -46 -6 -16 -5 -16 24 -1 27 14 33 14
52 0 51 -36 76 -63 82 -88 4 -14 15 -34 26 -44 35 -31 17 -94 -26 -94 -14 0
-25 -2 -25 -5 0 -15 45 -86 70 -110 l29 -28 -2 125 -3 126 -64 74 c-36 42 -73
85 -82 97 -23 27 -30 27 -54 -6z"/>
<path d="M8487 4839 c-3 -8 -12 -41 -22 -74 -9 -33 -23 -81 -31 -106 -8 -26
-14 -62 -14 -80 -1 -19 -7 -52 -15 -74 -8 -22 -15 -59 -15 -81 0 -23 -7 -58
-15 -77 -8 -20 -15 -56 -15 -81 0 -25 -4 -48 -10 -51 -5 -3 -10 -23 -10 -43
l1 -37 21 40 c21 40 27 63 49 200 7 39 18 79 25 90 8 11 14 35 14 55 0 19 5
53 11 75 5 22 14 65 19 95 5 30 14 75 19 100 6 26 6 49 1 54 -6 6 -11 4 -13
-5z"/>
<path d="M12262 4838 c3 -7 15 -15 29 -16 13 -2 31 -9 39 -16 8 -6 42 -20 75
-30 33 -10 72 -24 87 -32 14 -8 35 -14 45 -14 10 0 27 -6 38 -13 11 -7 47 -21
80 -31 33 -10 76 -24 95 -31 19 -8 82 -28 140 -45 58 -17 119 -36 135 -41 17
-6 44 -14 61 -19 18 -4 38 -11 45 -16 15 -9 156 -60 204 -73 34 -10 102 -37
127 -51 13 -7 18 -5 23 10 8 26 -1 40 -28 40 -12 1 -33 7 -47 15 -14 8 -35 14
-48 15 -13 0 -33 5 -45 12 -31 18 -86 38 -127 48 -19 4 -51 14 -70 20 -109 39
-130 46 -265 85 -33 10 -71 23 -85 30 -14 6 -52 20 -85 29 -33 10 -73 24 -90
31 -64 26 -101 38 -135 43 -19 2 -44 11 -55 18 -11 8 -34 14 -51 14 -18 0 -34
4 -36 8 -1 5 -16 12 -31 16 -22 5 -28 4 -25 -6z"/>
<path d="M1828 4774 c-5 -4 -8 -39 -8 -78 0 -49 3 -67 10 -60 6 6 10 40 8 78
-2 37 -6 64 -10 60z"/>
<path d="M439 4687 c-22 -27 -27 -46 -32 -122 -3 -50 -9 -110 -13 -134 -7 -42
-7 -43 15 -31 13 6 31 30 42 53 10 23 26 51 34 61 20 26 19 36 -3 36 -39 0
-47 58 -16 127 25 55 12 60 -27 10z"/>
<path d="M1446 4694 c-3 -9 -6 -24 -6 -35 0 -11 -7 -31 -16 -44 -17 -25 -31
-136 -15 -119 8 9 61 186 61 204 0 16 -17 11 -24 -6z"/>
<path d="M1798 4597 c-12 -29 -10 -83 3 -70 6 6 9 28 7 49 -2 29 -5 34 -10 21z"/>
<path d="M5367 4573 c-13 -12 -7 -23 12 -23 26 0 51 10 51 21 0 10 -53 12 -63
2z"/>
<path d="M5049 4540 c-25 -15 -52 -85 -45 -116 11 -43 62 -84 105 -84 56 0
111 53 111 108 0 33 -6 47 -32 71 -27 25 -41 31 -78 31 -25 0 -52 -5 -61 -10z"/>
<path d="M957 4508 c-36 -46 -42 -80 -22 -118 24 -46 75 -65 133 -49 51 14 65
38 60 108 -3 41 -6 48 -38 63 -19 9 -51 20 -71 23 -33 6 -39 4 -62 -27z"/>
<path d="M5300 4530 c0 -16 33 -28 85 -30 65 -3 75 -2 75 10 0 6 -22 10 -49
10 -28 0 -53 5 -56 10 -8 13 -55 13 -55 0z"/>
<path d="M567 4459 c-9 -34 -7 -770 2 -794 17 -43 22 46 22 411 0 344 -7 448
-24 383z"/>
<path d="M1375 4438 c-4 -18 -11 -37 -15 -43 -4 -5 -10 -18 -13 -27 -10 -28
12 -21 23 6 5 13 14 27 19 31 13 8 15 65 2 65 -5 0 -13 -15 -16 -32z"/>
<path d="M4618 4413 c-52 -8 -70 -64 -48 -145 9 -32 16 -39 52 -48 74 -20 128
24 128 104 0 63 -56 101 -132 89z"/>
<path d="M5400 4410 c30 -4 73 -15 95 -23 22 -9 58 -16 80 -17 22 0 56 -5 75
-11 19 -6 69 -15 110 -19 41 -4 104 -13 140 -19 36 -5 94 -15 130 -21 36 -6
97 -15 137 -20 40 -4 78 -12 85 -16 6 -4 44 -11 82 -15 39 -4 96 -12 126 -18
74 -13 182 -31 255 -42 33 -4 80 -13 105 -18 25 -6 68 -10 97 -11 28 0 64 -5
80 -11 15 -6 64 -15 108 -19 44 -4 109 -13 145 -19 36 -6 106 -18 155 -25 50
-8 124 -20 165 -26 41 -7 107 -16 145 -20 39 -4 83 -13 98 -19 16 -6 52 -11
81 -11 30 0 73 -7 96 -15 46 -16 155 -20 164 -6 7 11 -27 21 -71 21 -17 0 -44
5 -60 11 -15 7 -62 15 -103 19 -41 5 -93 13 -115 19 -22 5 -96 17 -165 26 -69
9 -143 21 -164 27 -22 5 -80 14 -130 18 -50 5 -109 13 -131 19 -39 10 -141 25
-280 41 -38 4 -83 13 -98 19 -16 6 -52 11 -81 11 -30 0 -73 7 -96 15 -23 8
-58 15 -77 15 -19 0 -71 7 -116 15 -146 26 -210 36 -296 46 -46 5 -92 14 -102
19 -10 6 -36 10 -58 10 -22 0 -70 6 -108 14 -37 8 -95 16 -128 17 -33 1 -71 6
-85 11 -26 10 -168 26 -280 33 l-65 3 55 -8z"/>
<path d="M2634 4371 c-52 -4 -98 -12 -107 -19 -11 -10 -17 -42 -22 -130 -7
-138 -17 -170 -54 -178 -14 -3 -47 -14 -73 -25 -26 -10 -55 -19 -66 -19 -24 0
-82 52 -82 73 0 21 -16 22 -24 1 -12 -30 -6 -45 22 -55 15 -5 36 -23 46 -39
23 -41 25 -40 134 14 19 9 46 16 61 16 51 0 62 25 68 164 5 97 10 129 22 140
18 16 160 31 177 19 6 -4 20 -53 32 -108 11 -55 27 -118 35 -140 14 -40 15
-40 73 -45 32 -3 69 -11 81 -18 12 -6 40 -12 62 -12 33 0 44 5 58 28 10 15 22
32 28 39 5 6 30 43 54 82 25 39 51 71 59 71 8 0 27 -11 44 -25 21 -18 41 -25
73 -25 28 0 45 -5 48 -14 7 -18 -3 -87 -14 -101 -10 -13 -59 -163 -59 -180 0
-6 28 -36 62 -66 34 -30 75 -66 90 -81 16 -16 32 -28 36 -28 4 1 25 12 47 25
22 14 47 28 55 31 8 3 41 19 73 35 31 16 66 29 76 29 17 0 51 -29 51 -44 0 -5
14 -25 30 -46 32 -41 38 -74 16 -87 -34 -20 -196 -178 -196 -192 0 -18 38 -99
51 -107 5 -3 9 -20 9 -38 0 -18 9 -45 20 -59 19 -24 25 -26 144 -29 160 -4
166 -8 166 -120 0 -54 -4 -80 -12 -82 -7 -2 -30 -9 -50 -15 -21 -7 -59 -16
-85 -21 -115 -21 -143 -31 -148 -53 -11 -45 -27 -133 -32 -178 l-5 -47 59 -40
c32 -23 82 -58 111 -78 28 -21 52 -45 52 -54 0 -8 -15 -45 -32 -80 -32 -62
-34 -65 -68 -63 -19 1 -70 13 -113 28 -43 14 -96 25 -119 25 -35 0 -47 -6 -75
-37 -22 -23 -30 -40 -24 -46 15 -15 59 0 66 22 3 11 14 21 23 23 17 4 79 -13
140 -38 18 -8 61 -14 96 -14 68 0 96 17 96 58 0 11 4 23 9 26 16 10 53 95 49
113 -3 16 -106 95 -190 144 -41 25 -52 49 -36 88 6 14 14 50 17 80 l6 54 50
13 c28 8 70 18 95 24 80 18 139 35 147 43 13 14 3 210 -12 233 -12 19 -26 22
-112 27 -54 3 -120 11 -148 19 -46 12 -50 15 -56 50 -3 20 -11 43 -16 50 -6 7
-14 29 -18 50 -8 41 -16 30 118 153 98 89 97 87 41 167 -19 26 -34 51 -34 55
-1 5 -11 21 -24 37 -21 25 -29 28 -58 22 -29 -5 -100 -36 -190 -82 -42 -22
-76 -17 -106 14 -15 16 -44 41 -64 57 -41 30 -47 52 -23 93 12 23 42 122 62
208 3 14 -2 23 -21 32 -18 8 -27 22 -31 49 -10 57 -13 63 -38 72 -16 6 -40 4
-77 -9 -42 -14 -60 -28 -87 -64 -18 -25 -33 -50 -33 -56 0 -5 -4 -10 -9 -10
-5 0 -25 -25 -45 -55 -47 -70 -61 -77 -117 -60 -24 8 -62 18 -84 22 -35 7 -42
13 -53 48 -8 22 -18 63 -22 90 -20 118 -46 170 -80 163 -3 -1 -46 -4 -96 -7z"/>
<path d="M1830 4354 c0 -9 32 -33 44 -34 5 0 1 9 -9 20 -18 20 -35 26 -35 14z"/>
<path d="M1312 4298 c-29 -58 -25 -80 6 -38 14 19 22 41 20 58 -3 25 -5 24
-26 -20z"/>
<path d="M5400 4331 c0 -5 10 -13 23 -16 12 -4 49 -19 82 -34 110 -51 136 -61
153 -61 10 0 23 -5 30 -12 12 -12 63 -33 117 -48 51 -14 98 -32 162 -61 35
-16 71 -29 81 -29 10 0 27 -7 38 -15 10 -8 27 -15 36 -15 15 0 62 -20 120 -51
10 -5 25 -9 34 -9 9 0 28 -6 42 -14 35 -19 127 -56 177 -72 22 -7 65 -22 95
-34 30 -11 82 -30 114 -41 33 -11 69 -27 80 -35 11 -8 32 -14 47 -14 15 0 32
-6 38 -14 7 -8 26 -18 42 -21 16 -4 31 -11 34 -16 4 -5 16 -9 29 -9 12 0 31
-7 42 -15 10 -8 28 -15 40 -15 11 0 29 -7 40 -15 10 -8 26 -15 34 -15 8 0 28
-7 44 -15 15 -8 37 -15 47 -15 10 0 20 -4 24 -9 3 -5 19 -13 37 -16 17 -4 60
-20 96 -36 35 -16 71 -29 80 -29 10 0 26 -7 36 -15 11 -8 29 -15 40 -15 11 0
27 -6 35 -14 9 -7 41 -21 71 -31 30 -10 69 -24 85 -31 17 -7 68 -27 115 -44
47 -18 100 -38 118 -46 18 -8 41 -14 50 -14 10 0 27 -7 38 -15 10 -8 27 -15
36 -15 9 0 30 -7 47 -15 17 -8 45 -22 62 -30 17 -8 39 -15 49 -15 9 0 23 -6
29 -14 12 -14 48 -24 116 -31 39 -5 40 -5 10 7 -16 6 -36 17 -43 25 -7 7 -20
13 -28 13 -8 0 -38 12 -67 28 -28 15 -79 35 -112 46 -60 18 -106 37 -157 63
-14 7 -34 13 -43 13 -9 0 -31 6 -48 14 -31 13 -62 25 -157 61 -25 9 -58 23
-73 31 -16 8 -36 14 -46 14 -9 0 -26 7 -37 15 -10 8 -27 15 -36 15 -16 0 -30
6 -106 44 -19 9 -41 16 -51 16 -9 0 -21 4 -27 9 -9 10 -49 25 -174 67 -41 14
-79 29 -84 35 -6 5 -19 9 -31 9 -12 0 -30 7 -41 15 -10 8 -29 15 -40 15 -12 0
-27 7 -34 15 -7 8 -23 15 -35 15 -12 0 -28 7 -35 15 -7 8 -19 15 -27 15 -8 0
-29 6 -46 13 -49 21 -99 38 -127 44 -14 3 -34 12 -45 19 -11 8 -26 14 -33 14
-8 0 -30 7 -50 16 -21 9 -52 22 -70 30 -18 8 -38 14 -46 14 -7 0 -39 14 -71
30 -32 17 -67 30 -78 30 -10 0 -33 7 -50 16 -74 39 -86 44 -102 44 -9 0 -29 6
-43 14 -48 24 -102 46 -117 46 -7 0 -26 7 -42 15 -15 8 -68 29 -118 46 -49 18
-112 42 -140 54 -27 13 -69 28 -92 34 -23 6 -45 16 -48 21 -3 6 -16 10 -28 10
-12 0 -31 7 -41 15 -22 17 -76 20 -76 6z"/>
<path d="M2054 4299 c-33 -12 -37 -36 -8 -56 14 -10 45 -32 68 -49 24 -18 53
-35 65 -39 17 -5 21 -2 21 17 0 44 -27 101 -51 111 -52 20 -75 24 -95 16z"/>
<path d="M5270 4304 c0 -9 64 -71 140 -134 35 -30 70 -59 76 -65 6 -5 33 -28
60 -50 26 -22 67 -56 89 -75 23 -20 49 -42 59 -50 10 -8 30 -26 45 -40 14 -14
46 -41 71 -61 25 -20 57 -47 71 -60 14 -13 47 -42 75 -64 27 -22 54 -44 60
-50 6 -5 33 -28 60 -50 26 -22 71 -60 98 -84 28 -24 71 -61 96 -82 25 -22 65
-55 90 -74 25 -20 68 -56 95 -80 28 -24 77 -68 111 -97 33 -29 80 -69 104 -88
24 -19 82 -69 129 -110 47 -41 91 -78 96 -82 28 -21 208 -174 234 -198 9 -9
39 -33 66 -55 28 -22 52 -42 55 -45 17 -19 89 -69 108 -75 21 -6 22 -5 14 12
-11 21 -43 50 -122 112 -30 24 -80 65 -110 91 -85 74 -202 173 -232 197 -15
11 -60 50 -100 86 -40 35 -98 84 -128 108 -56 44 -94 76 -114 95 -27 25 -116
102 -156 134 -45 36 -91 76 -170 145 -25 23 -76 66 -115 97 -38 31 -79 64 -90
75 -11 10 -64 56 -119 101 -54 46 -104 88 -110 95 -7 7 -27 23 -46 37 -18 14
-49 40 -69 58 -20 19 -58 52 -85 75 -27 23 -66 56 -85 72 -20 17 -56 46 -81
65 -25 19 -49 40 -55 46 -38 41 -115 87 -115 68z"/>
<path d="M5164 4285 c5 -11 11 -30 13 -42 3 -12 11 -28 19 -34 8 -6 14 -18 14
-26 0 -8 6 -27 14 -41 7 -15 21 -43 29 -62 9 -19 27 -61 42 -92 14 -31 30 -67
35 -80 5 -13 14 -30 19 -38 19 -30 71 -150 71 -164 0 -8 7 -16 15 -20 8 -3 15
-11 15 -18 0 -12 48 -118 71 -158 5 -8 12 -22 15 -30 7 -17 33 -76 71 -160 13
-30 29 -62 34 -70 5 -8 12 -22 15 -30 8 -20 73 -151 84 -170 5 -8 11 -23 14
-32 3 -10 12 -18 20 -18 20 0 12 29 -34 125 -21 44 -50 106 -65 137 -14 32
-30 60 -36 63 -5 4 -9 17 -9 29 0 13 -7 29 -15 36 -8 7 -15 17 -15 24 0 6 -13
38 -29 71 -82 172 -168 356 -206 440 -15 33 -49 105 -75 160 -26 55 -51 107
-54 115 -14 32 -34 62 -57 83 -21 20 -22 20 -15 2z"/>
<path d="M9532 4235 c-62 -52 -31 -145 52 -161 31 -5 41 -2 63 17 32 30 44 61
37 96 -9 46 -30 65 -76 70 -37 4 -49 1 -76 -22z"/>
<path d="M5051 4228 c-7 -12 -17 -65 -22 -117 -4 -53 -13 -114 -18 -136 -6
-22 -11 -73 -11 -113 0 -44 -6 -84 -15 -102 -10 -19 -16 -65 -17 -139 -2 -77
-7 -112 -15 -116 -8 -2 -13 -23 -13 -53 0 -27 -7 -71 -15 -98 -8 -27 -15 -69
-15 -94 0 -25 -5 -61 -10 -80 -12 -38 -38 -227 -50 -360 -5 -47 -13 -103 -19
-125 -6 -22 -11 -63 -11 -92 0 -28 -6 -78 -14 -110 -26 -105 -27 -123 -10
-130 26 -10 27 -8 44 147 6 52 18 124 26 160 8 36 14 76 14 90 -1 34 29 263
41 325 6 28 14 86 19 130 4 44 13 93 19 108 6 16 11 63 11 106 0 42 5 82 10
87 6 6 16 56 21 110 6 54 14 117 19 139 5 22 10 62 10 88 0 27 4 56 9 65 5 9
14 69 21 132 6 63 14 134 17 158 6 46 -5 54 -26 20z"/>
<path d="M1252 4197 c-32 -34 -28 -58 4 -25 15 14 25 31 22 38 -2 7 -12 2 -26
-13z"/>
<path d="M9315 4144 c-33 -7 -112 -20 -175 -29 -63 -9 -145 -23 -182 -31 -37
-8 -85 -14 -108 -14 -22 0 -57 -7 -77 -15 -19 -8 -55 -15 -80 -15 -24 0 -58
-6 -76 -14 -18 -7 -54 -16 -80 -20 -26 -4 -47 -11 -47 -17 0 -14 89 -11 153 6
32 8 67 15 79 15 12 0 44 6 72 14 50 14 162 33 241 41 148 16 315 49 380 75
16 7 17 9 3 9 -9 1 -22 3 -30 5 -7 2 -40 -2 -73 -10z"/>
<path d="M1201 4126 c-8 -10 -9 -16 -1 -21 5 -3 13 1 16 10 9 22 -1 29 -15 11z"/>
<path d="M8310 4089 c-61 -24 -95 -92 -70 -138 13 -26 67 -61 92 -61 10 0 33
14 53 31 29 26 35 38 35 70 0 32 -7 45 -37 74 -42 39 -39 37 -73 24z"/>
<path d="M9466 4046 c-11 -6 -29 -21 -40 -33 -46 -48 -142 -157 -155 -177 -8
-12 -51 -58 -95 -104 -44 -45 -85 -91 -91 -101 -13 -23 -135 -160 -196 -221
-58 -56 -132 -156 -127 -170 2 -6 32 19 68 56 36 37 79 81 95 98 17 17 39 43
50 57 11 14 50 59 87 100 36 41 113 126 169 189 57 63 105 117 108 120 22 20
130 150 140 168 15 29 12 33 -13 18z"/>
<path d="M1140 4040 c0 -8 -42 -50 -226 -227 -23 -22 -57 -44 -73 -48 -17 -4
-31 -10 -31 -15 0 -5 -16 -18 -35 -30 -33 -20 -46 -40 -26 -40 12 0 115 70
119 81 2 5 8 9 14 9 23 0 218 174 218 195 0 5 14 19 30 30 28 19 41 55 20 55
-5 0 -10 -4 -10 -10z"/>
<path d="M2168 3989 c-10 -10 -18 -25 -18 -33 0 -8 -6 -21 -14 -29 -8 -7 -23
-29 -33 -48 -34 -64 -63 -96 -90 -103 -18 -4 -42 -25 -67 -57 -50 -66 -74 -77
-123 -57 -38 15 -182 65 -215 75 -12 4 -21 -3 -28 -18 -6 -13 -28 -58 -50 -99
-22 -41 -40 -83 -40 -92 0 -20 18 -40 75 -83 41 -31 52 -38 118 -77 46 -28 52
-46 32 -93 -8 -21 -15 -54 -15 -75 0 -44 -9 -53 -70 -69 -109 -30 -139 -34
-155 -21 -19 16 -41 64 -50 108 -4 17 -10 32 -15 32 -5 0 -11 13 -15 29 -3 16
-13 35 -21 42 -8 6 -14 17 -14 23 -1 15 -50 74 -50 60 0 -23 56 -150 69 -159
5 -3 12 -19 16 -35 4 -16 14 -34 23 -39 11 -6 16 -24 16 -60 1 -46 3 -51 23
-51 12 0 25 5 28 10 3 6 30 10 58 10 48 0 145 24 175 43 6 5 12 26 12 48 0 22
7 53 15 68 7 15 15 47 16 70 3 36 -1 45 -32 71 -18 16 -37 29 -41 30 -4 0 -34
19 -65 43 -32 24 -66 47 -75 50 -24 8 -23 20 7 79 14 27 25 56 25 63 0 40 82
52 121 19 8 -8 31 -14 50 -14 19 0 46 -6 61 -14 53 -28 85 -29 105 -5 10 12
26 30 36 41 9 10 17 21 17 26 1 4 9 18 20 30 16 19 26 22 49 17 27 -6 32 -3
50 34 12 22 21 47 21 54 0 8 7 20 15 27 8 7 15 23 15 36 0 13 4 24 10 24 5 0
17 17 27 38 9 20 19 40 21 45 7 14 -13 5 -30 -14z"/>
<path d="M9650 3960 c0 -21 6 -54 14 -72 8 -18 23 -62 35 -98 28 -92 42 -130
57 -168 8 -18 14 -40 14 -50 0 -9 7 -30 15 -46 8 -15 15 -36 15 -45 0 -10 7
-26 15 -37 8 -10 15 -35 15 -54 0 -19 7 -46 15 -60 8 -14 14 -39 15 -56 0 -17
7 -37 15 -44 8 -7 15 -22 15 -34 1 -11 7 -32 15 -46 8 -14 14 -37 15 -51 0
-14 7 -34 15 -45 8 -10 15 -29 15 -41 0 -12 7 -34 15 -50 8 -15 17 -40 20 -55
3 -16 10 -28 15 -28 23 0 1 108 -36 183 -8 16 -14 39 -14 51 0 12 -7 31 -15
42 -8 10 -15 27 -15 38 0 23 -28 112 -46 148 -8 14 -14 35 -14 46 0 11 -7 27
-15 36 -8 8 -15 28 -15 45 0 17 -6 48 -13 68 -30 83 -39 111 -58 173 -11 36
-26 85 -34 110 -8 25 -15 54 -15 66 0 11 -4 24 -9 30 -5 5 -14 26 -21 47 -15
48 -30 47 -30 -3z"/>
<path d="M1630 3880 c0 -5 12 -10 26 -10 14 0 23 4 19 10 -3 6 -15 10 -26 10
-10 0 -19 -4 -19 -10z"/>
<path d="M1735 3850 c3 -5 15 -10 26 -10 11 0 17 5 14 10 -3 6 -15 10 -26 10
-11 0 -17 -4 -14 -10z"/>
<path d="M2600 3844 c-25 -7 -60 -13 -78 -13 -18 -1 -40 -5 -50 -11 -9 -5 -28
-14 -42 -20 -14 -5 -32 -14 -40 -19 -8 -4 -31 -16 -50 -26 -19 -10 -37 -21
-40 -24 -3 -3 -27 -21 -55 -40 -97 -66 -245 -246 -245 -298 0 -9 -6 -24 -13
-32 -13 -16 -33 -78 -61 -188 -18 -72 -21 -192 -5 -243 5 -19 14 -55 18 -80
28 -145 114 -294 243 -422 57 -56 89 -73 124 -66 31 6 24 23 -19 42 -42 20
-197 165 -197 186 0 6 -12 29 -27 53 -47 71 -86 177 -96 257 -4 25 -10 65 -16
89 -6 30 -5 60 5 100 7 31 13 70 14 86 0 53 58 212 96 262 13 17 24 36 24 42
0 13 121 136 179 182 24 19 67 46 96 60 30 14 59 30 67 36 13 10 92 31 196 52
71 15 120 14 236 -4 158 -23 332 -120 449 -249 37 -40 117 -161 138 -206 31
-69 56 -158 69 -250 11 -80 -23 -280 -65 -375 -7 -16 -16 -37 -19 -45 -3 -8
-15 -28 -26 -45 -11 -16 -23 -37 -26 -45 -14 -29 -175 -182 -204 -192 -38 -13
-40 -38 -2 -38 47 0 105 51 199 177 67 90 75 104 101 158 28 60 43 105 53 155
4 25 13 61 18 80 16 51 13 179 -4 236 -8 27 -15 59 -15 71 0 37 -74 198 -123
268 -41 58 -137 155 -188 190 -24 17 -45 33 -47 38 -2 4 -8 7 -14 7 -6 0 -32
12 -57 28 -124 74 -375 113 -501 76z"/>
<path d="M1445 3827 c-11 -13 -35 -32 -52 -42 -35 -20 -47 -65 -18 -65 8 0 15
4 15 8 0 5 13 21 28 38 34 35 65 84 55 84 -5 0 -17 -11 -28 -23z"/>
<path d="M1815 3820 c3 -5 22 -10 41 -10 21 0 33 4 29 10 -3 6 -22 10 -41 10
-21 0 -33 -4 -29 -10z"/>
<path d="M1313 3695 c-3 -9 -3 -19 1 -22 7 -7 36 16 36 28 0 15 -30 10 -37 -6z"/>
<path d="M677 3663 c-12 -11 -8 -23 7 -23 7 0 19 7 26 15 10 12 9 15 -7 15
-11 0 -23 -3 -26 -7z"/>
<path d="M444 3565 c-4 -8 -16 -15 -28 -15 -12 0 -31 -7 -42 -15 -10 -8 -35
-15 -54 -15 -28 0 -32 -3 -18 -11 13 -7 44 -1 118 23 55 18 100 36 100 40 0
15 -70 9 -76 -7z"/>
<path d="M0 3478 c0 -5 32 -8 70 -8 41 0 70 4 70 10 0 7 -27 10 -70 8 -38 -2
-70 -6 -70 -10z"/>
<path d="M1280 3468 c0 -26 16 -55 25 -47 8 8 -6 69 -16 69 -5 0 -9 -10 -9
-22z"/>
<path d="M12726 3465 c-47 -16 -43 -11 -51 -66 -6 -40 -4 -49 20 -77 29 -35
72 -42 118 -21 52 24 63 101 20 141 -36 33 -62 38 -107 23z"/>
<path d="M13390 3469 c-41 -4 -88 -12 -103 -18 -16 -6 -81 -11 -145 -12 -64
-1 -128 -4 -142 -9 -76 -23 104 -24 395 -2 80 6 90 9 90 26 0 24 -4 25 -95 15z"/>
<path d="M12870 3275 c0 -8 5 -15 10 -15 6 0 10 -5 10 -10 0 -6 23 -32 51 -58
29 -26 70 -65 93 -87 23 -22 104 -98 181 -170 158 -147 177 -166 223 -219 34
-39 52 -40 52 -2 0 17 -16 36 -52 63 -29 22 -108 94 -175 159 -110 107 -172
166 -313 294 -58 54 -80 66 -80 45z"/>
<path d="M8560 3213 c-67 -44 -80 -64 -80 -121 0 -44 5 -62 26 -89 40 -53 71
-64 140 -51 50 9 62 16 82 45 29 45 30 122 2 168 -21 34 -80 65 -123 65 -12 0
-34 -7 -47 -17z m70 -117 c0 -2 3 -11 6 -19 4 -12 0 -14 -15 -10 -24 6 -29 33
-6 33 8 0 15 -2 15 -4z"/>
<path d="M850 3213 c0 -26 137 -183 159 -183 5 0 21 -14 34 -31 15 -19 27 -27
31 -21 4 6 -35 54 -86 107 -51 53 -98 105 -106 116 -13 19 -32 26 -32 12z"/>
<path d="M12685 3198 c-3 -13 -12 -47 -21 -75 -8 -29 -21 -79 -30 -110 -8 -32
-22 -79 -30 -104 -8 -26 -14 -56 -14 -68 0 -11 -6 -35 -14 -53 -8 -18 -19 -58
-25 -88 -30 -145 -53 -228 -78 -283 -12 -27 -13 -41 -5 -49 20 -20 38 0 51 58
7 33 17 70 22 84 5 14 13 45 19 70 18 89 32 146 47 200 8 30 22 80 30 110 8
30 19 69 25 85 6 17 13 50 15 75 2 25 11 59 19 77 16 35 19 93 5 93 -5 0 -12
-10 -16 -22z"/>
<path d="M566 3130 c-3 -19 -7 -178 -8 -352 -2 -243 0 -319 9 -322 7 -3 15 0
19 6 10 15 4 669 -6 687 -6 12 -10 7 -14 -19z"/>
<path d="M2626 3055 c-22 -33 -20 -48 7 -73 46 -43 107 -15 107 48 0 36 -17
50 -61 50 -28 0 -41 -6 -53 -25z"/>
<path d="M1408 3044 c-13 -13 -9 -212 4 -220 6 -4 66 -10 132 -14 132 -7 186
-25 186 -61 0 -11 6 -30 14 -42 8 -12 17 -41 21 -63 7 -46 21 -30 -152 -186
-66 -60 -75 -65 -118 -66 -26 0 -49 -3 -52 -6 -14 -14 11 -19 89 -20 81 -1 83
0 86 24 3 16 41 60 105 122 l102 97 -17 29 c-10 17 -18 39 -18 50 0 11 -7 25
-15 32 -8 7 -15 29 -15 49 0 56 -30 69 -169 72 -140 4 -161 15 -162 87 0 63
-12 126 -21 116z"/>
<path d="M11372 2962 c-24 -16 -62 -76 -62 -99 0 -39 34 -63 88 -63 59 0 82
20 82 73 0 63 -64 116 -108 89z"/>
<path d="M1266 2951 c-4 -6 -26 -15 -48 -22 -35 -9 -48 -8 -76 6 -19 9 -37 14
-40 11 -7 -8 46 -86 59 -86 27 0 129 83 117 95 -3 4 -9 2 -12 -4z"/>
<path d="M5780 2905 c-42 -68 -9 -125 73 -125 27 0 35 6 53 38 l20 38 -21 34
c-38 60 -93 67 -125 15z"/>
<path d="M8730 2907 c0 -9 4 -25 9 -35 5 -9 18 -37 30 -62 12 -25 44 -85 71
-135 26 -49 64 -119 82 -155 19 -36 40 -74 46 -85 7 -11 16 -32 22 -47 6 -18
17 -28 29 -28 33 0 34 18 4 63 -16 23 -39 62 -52 87 -12 25 -31 59 -41 75 -11
17 -31 53 -46 80 -14 28 -41 77 -60 110 -18 33 -38 69 -43 80 -6 11 -19 31
-30 45 -17 21 -21 22 -21 7z"/>
<path d="M331 2890 c-2 -8 -5 -37 -7 -65 -1 -27 -5 -71 -9 -97 -4 -31 -2 -48
5 -48 18 0 21 22 17 126 -1 54 -4 92 -6 84z"/>
<path d="M10920 2889 c0 -5 -13 -15 -29 -23 -28 -15 -51 -59 -51 -97 0 -9 12
-31 26 -48 32 -38 80 -41 130 -10 30 18 34 26 34 63 0 23 -7 51 -15 63 -16 22
-95 66 -95 52z"/>
<path d="M10010 2833 c1 -25 9 -48 25 -68 27 -32 34 -19 16 27 -5 13 -12 35
-15 51 -9 40 -26 33 -26 -10z"/>
<path d="M8506 2813 c-10 -27 -21 -62 -25 -78 -4 -17 -13 -40 -19 -52 -7 -12
-12 -29 -12 -38 0 -9 -7 -33 -16 -53 -9 -21 -22 -52 -30 -70 -8 -18 -14 -39
-14 -47 0 -8 -10 -33 -21 -55 -15 -29 -19 -44 -11 -52 19 -19 41 0 52 44 7 24
18 58 26 76 8 18 14 40 14 48 0 9 6 28 14 42 14 29 29 69 53 147 34 111 24
188 -11 88z"/>
<path d="M5992 2829 c4 -11 52 -32 113 -49 29 -8 61 -18 128 -41 17 -6 53 -14
80 -18 26 -4 53 -13 59 -19 7 -7 22 -12 33 -12 12 0 41 -6 66 -14 24 -7 69
-21 99 -29 30 -8 80 -22 110 -31 30 -8 82 -23 115 -32 33 -8 80 -22 105 -30
25 -8 56 -14 70 -14 15 0 31 -5 37 -11 12 -12 97 -37 163 -49 25 -4 59 -13 76
-20 33 -14 70 -7 59 10 -3 5 -16 10 -28 10 -12 1 -33 7 -47 15 -14 8 -39 14
-55 15 -17 0 -39 6 -50 14 -11 7 -33 16 -50 18 -16 3 -43 10 -60 16 -82 28
-132 42 -151 42 -12 0 -35 7 -50 15 -16 8 -39 15 -52 15 -13 0 -33 5 -45 12
-12 6 -40 15 -62 19 -70 13 -226 56 -265 72 -23 10 -84 26 -173 46 -21 5 -44
14 -50 20 -6 6 -22 11 -36 11 -15 1 -37 7 -51 15 -30 17 -93 20 -88 4z"/>
<path d="M5695 2742 c-22 -21 -85 -88 -140 -147 -55 -60 -124 -131 -152 -158
-29 -28 -53 -56 -53 -63 0 -25 38 -15 67 17 71 78 148 162 237 256 85 91 113
133 88 133 -4 0 -26 -17 -47 -38z"/>
<path d="M10660 2741 c-22 -13 -180 -51 -209 -51 -14 0 -46 -7 -71 -15 -25 -8
-57 -17 -72 -20 -16 -3 -28 -10 -28 -15 0 -15 79 -11 125 5 22 8 54 15 70 15
17 0 43 7 59 15 15 8 45 15 65 15 20 1 47 7 61 15 14 8 37 14 52 15 33 0 58 9
58 21 0 11 -90 11 -110 0z"/>
<path d="M5900 2717 c0 -15 52 -138 70 -167 6 -8 13 -22 16 -30 4 -8 17 -38
30 -67 13 -28 24 -59 24 -68 0 -18 24 -30 45 -21 16 6 17 2 -111 260 -46 93
-74 128 -74 93z"/>
<path d="M3245 2703 c-86 -21 -66 -139 23 -131 29 2 40 10 55 36 19 32 19 36
4 68 -17 34 -31 39 -82 27z"/>
<path d="M10067 2662 c-72 -76 20 -180 97 -109 42 38 43 63 1 103 -44 41 -63
43 -98 6z"/>
<path d="M11060 2681 c0 -5 69 -79 153 -165 123 -125 159 -156 180 -156 17 0
27 5 27 15 0 8 -4 15 -10 15 -5 0 -53 42 -107 93 -206 195 -243 225 -243 198z"/>
<path d="M302 2658 c-7 -7 -12 -20 -12 -30 0 -11 -11 -23 -26 -28 -14 -6 -22
-14 -19 -20 7 -12 82 -14 89 -2 6 11 -5 92 -13 92 -4 0 -12 -5 -19 -12z"/>
<path d="M10816 2628 c-9 -13 -46 -68 -82 -123 -36 -55 -72 -107 -80 -116 -16
-18 -9 -29 17 -29 10 0 31 22 50 53 18 28 39 61 46 72 7 11 24 44 38 72 15 29
31 55 36 58 11 8 12 35 0 35 -4 0 -16 -10 -25 -22z"/>
<path d="M0 2565 c0 -16 27 -20 48 -6 10 6 8 10 -10 14 -34 10 -38 9 -38 -8z"/>
<path d="M76 2571 c-7 -11 18 -21 54 -21 33 0 48 15 24 24 -24 9 -72 7 -78 -3z"/>
<path d="M7447 2509 c-21 -11 -42 -31 -47 -44 -5 -14 -14 -25 -20 -25 -5 0
-10 -18 -10 -40 l0 -41 148 3 147 3 -2 33 c-1 41 -46 100 -89 118 -45 19 -82
17 -127 -7z"/>
<path d="M10051 2442 c-5 -10 -11 -31 -13 -48 -2 -23 1 -29 17 -29 17 0 20 8
23 48 3 48 -9 62 -27 29z"/>
<path d="M9221 2386 c12 -10 59 -15 59 -6 0 5 -14 10 -32 10 -17 0 -29 -2 -27
-4z"/>
</g>
</svg>
